# xmcd
#
# Track frame offsets:
# 150
# 18718
# 32447
# 47609
#
# Disc length: 843 seconds
#
#
# Revision: 0
# Processed by: cddbd v1.5.1PL2 Copyright (c) Steve Scherf et al.
# Submitted via: FreeRIP 2.944 
#
DISCID=27034904
DTITLE=Melissa Schott - Melissa Schott
DYEAR=1999
DGENRE=Crossover
TTITLE0=I'm Not So Tough
TTITLE1=Tell Me So Tonight
TTITLE2=I Never Had a Prayer
TTITLE3=How Could I Ask for More
EXTD=Recorded at Aire Borne Studios (Zionsville, IN]\nEngineered by Mike Petrow\nMastered at Wolf Mastering (Nashville, TN]\n\nGuitars:  Sandy Williams\nBass: Steve Dokken\nDrums:  Tony Mederios\nPiano/Keys:  Steve Potts\nBGV: Michelle Schott\nCD Design:
EXTD=Aaron Harley\n\nwww.melissaschott.com
EXTT0=
EXTT1=
EXTT2=
EXTT3=
PLAYORDER=
